<svg width="134" height="26" viewBox="0 0 134 26" fill="none" xmlns="http://www.w3.org/2000/svg">
<g clip-path="url(#clip0_90_4545)">
<path d="M40.0944 6.71871V21.3293H38.1262V6.71871H40.0944ZM46.3144 13.2911V14.8768H39.6656V13.2911H46.3144ZM47.3238 6.71871V8.30439H39.6656V6.71871H47.3238ZM51.7798 6.71871V21.3293H49.8116V6.71871H51.7798ZM66.7797 6.71871V21.3293H64.8012L57.3266 10.0606V21.3293H55.3585V6.71871H57.3266L64.8321 18.0178V6.71871H66.7797ZM81.6878 6.71871V21.3293H79.7094L72.2347 10.0606V21.3293H70.2674V6.71871H72.2347L79.7402 18.0178V6.71871H81.6878ZM89.1933 21.3293H86.0931L86.1137 19.7537H89.1933C90.2533 19.7537 91.1369 19.5365 91.8441 19.1014C92.5513 18.66 93.0813 18.0443 93.4349 17.2549C93.7948 16.4586 93.9752 15.5291 93.9752 14.465V13.5721C93.9752 12.7361 93.8731 11.9934 93.669 11.3442C93.4657 10.6888 93.1667 10.1368 92.772 9.68847C92.378 9.23386 91.8955 8.88901 91.3244 8.65469C90.7596 8.42038 90.1109 8.30362 89.3768 8.30362H86.0315V6.71793H89.3768C90.3482 6.71793 91.2358 6.87829 92.0379 7.19978C92.84 7.51428 93.5298 7.97278 94.1081 8.57451C94.6927 9.17002 95.1412 9.89242 95.4537 10.7417C95.7669 11.5848 95.9227 12.5345 95.9227 13.5916V14.4642C95.9227 15.5213 95.7669 16.4742 95.4537 17.3242C95.1412 18.1673 94.6895 18.8865 94.0978 19.4813C93.5132 20.0768 92.806 20.5353 91.977 20.856C91.1543 21.1705 90.2264 21.3277 89.1933 21.3277V21.3293ZM87.1429 6.71871V21.3293H85.1755V6.71871H87.1429ZM110.311 13.562V14.4852C110.311 15.5821 110.172 16.566 109.893 17.4355C109.614 18.3051 109.213 19.0446 108.69 19.6533C108.167 20.2621 107.538 20.7268 106.804 21.0483C106.076 21.369 105.26 21.5301 104.356 21.5301C103.452 21.5301 102.674 21.3698 101.939 21.0483C101.212 20.7276 100.58 20.2621 100.043 19.6533C99.5125 19.0446 99.1012 18.3051 98.8085 17.4355C98.5166 16.566 98.3703 15.5828 98.3703 14.4852V13.562C98.3703 12.4652 98.5134 11.4851 98.7982 10.6218C99.0909 9.7523 99.5023 9.01278 100.032 8.40404C100.563 7.78829 101.191 7.32044 101.919 6.99895C102.653 6.67823 103.459 6.51709 104.336 6.51709C105.212 6.51709 106.055 6.67745 106.783 6.99895C107.517 7.31966 108.146 7.78829 108.67 8.40404C109.2 9.01278 109.604 9.7523 109.883 10.6218C110.169 11.4851 110.311 12.4652 110.311 13.562ZM108.364 14.4852V13.5418C108.364 12.6722 108.272 11.9031 108.088 11.2337C107.911 10.565 107.65 10.003 107.303 9.54757C106.956 9.09296 106.532 8.74811 106.028 8.5138C105.532 8.27948 104.968 8.16272 104.336 8.16272C103.704 8.16272 103.17 8.27948 102.674 8.5138C102.184 8.74811 101.762 9.09218 101.409 9.54757C101.062 10.0022 100.794 10.5642 100.603 11.2337C100.414 11.9024 100.318 12.6722 100.318 13.5418V14.4852C100.318 15.3618 100.414 16.1379 100.603 16.8136C100.794 17.4822 101.065 18.0482 101.419 18.5098C101.78 18.9644 102.204 19.3092 102.694 19.5436C103.19 19.7779 103.744 19.8946 104.356 19.8946C104.968 19.8946 105.562 19.7779 106.059 19.5436C106.555 19.3092 106.973 18.9652 107.313 18.5098C107.66 18.0482 107.921 17.483 108.099 16.8136C108.275 16.1379 108.364 15.3618 108.364 14.4852ZM115.226 6.71871V21.3293H113.258V6.71871H115.226ZM121.447 13.2911V14.8768H114.798V13.2911H121.447ZM122.456 6.71871V8.30439H114.798V6.71871H122.456ZM126.769 6.71871V21.3293H124.802V6.71871H126.769ZM132.99 13.2911V14.8768H126.341V13.2911H132.99ZM133.999 6.71871V8.30439H126.341V6.71871H133.999Z" fill="#0B2333"/>
<path d="M0 5.5176L9.33914 0L14.9509 3.06551L5.24783 8.92174V20.0838L0 17.0822V5.5176Z" fill="#0B2333"/>
<path d="M7.51489 10.3036L15.7173 5.44922L20.6463 8.14652L12.1243 13.299V23.1199L7.51489 20.4786V10.3044V10.3036Z" fill="#66B5B8"/>
<path d="M14.3181 14.7648L21.5325 10.509L25.8675 12.8732L18.3722 17.3897V25.9993L14.3181 23.6842V14.7648Z" fill="#5AC28B"/>
<path d="M25.1555 21.524L20.9431 24.1194V18.9287L25.1555 21.524Z" fill="#FFCB05"/>
</g>
<defs>
<clipPath id="clip0_90_4545">
<rect width="134" height="26" fill="white"/>
</clipPath>
</defs>
</svg>
